999
"DXF R12 Output" (www.mydxf.blogspot.com)
 0 
SECTION
 2 
HEADER
 9 
$ACADVER
 1 
AC1009
 9 
$EXTMIN
 10 
 0 
 20 
 0 
 9 
$EXTMAX
 10 
 8.5 
 20 
 11 
 0 
ENDSEC
 0 
SECTION
 2 
ENTITIES
0
LINE
8
Layer 1
10
0.846666
20
320.847000
11
-0.846666
21
319.153000
0
LINE
8
Layer 1
10
0.000000
20
321.411000
11
0.000000
21
318.589000
0
LINE
8
Layer 1
10
2.257780
20
318.871000
11
1.128890
21
317.742110
0
LINE
8
Layer 1
10
1.693330
20
319.436000
11
0.564440
21
318.307110
0
LINE
8
Layer 1
10
1.128890
20
320.000000
11
0.000000
21
318.871110
0
LINE
8
0
10
108.949000
20
108.616000
11
108.949000
21
87.069300
0
LINE
8
0
10
108.949000
20
87.069300
11
104.682000
21
87.069300
0
LINE
8
0
10
104.682000
20
87.069300
11
104.682000
21
65.736000
0
LINE
8
0
10
104.682000
20
65.736000
11
55.391800
21
65.736000
0
LINE
8
0
10
55.391800
20
65.736000
11
57.351430
21
87.291900
0
LINE
8
0
10
57.351430
20
87.291900
11
65.849710
21
86.519345
0
LINE
8
0
10
65.849710
20
86.519345
11
67.769790
21
107.640145
0
LINE
8
0
10
67.769790
20
107.640145
11
59.271510
21
108.412728
0
LINE
8
0
10
59.271510
20
108.412728
11
61.230220
21
129.958528
0
LINE
8
0
10
61.230220
20
129.958528
11
69.728500
21
129.185973
0
LINE
8
0
10
69.728500
20
129.185973
11
71.648580
21
150.306773
0
LINE
8
0
10
71.648580
20
150.306773
11
63.150300
21
151.079356
0
LINE
8
0
10
63.150300
20
151.079356
11
65.109010
21
172.625156
0
LINE
8
0
10
65.109010
20
172.625156
11
73.607290
21
171.852601
0
LINE
8
0
10
73.607290
20
171.852601
11
75.527370
21
192.973401
0
LINE
8
0
10
75.527370
20
192.973401
11
67.029090
21
193.745984
0
LINE
8
0
10
67.029090
20
193.745984
11
68.987800
21
215.291784
0
LINE
8
0
10
68.987800
20
215.291784
11
77.486080
21
214.519229
0
LINE
8
0
10
77.486080
20
214.519229
11
79.406160
21
235.640029
0
LINE
8
0
10
79.406160
20
235.640029
11
70.907880
21
236.412612
0
LINE
8
0
10
70.907880
20
236.412612
11
72.866590
21
257.958412
0
LINE
8
0
10
72.866590
20
257.958412
11
81.364870
21
257.185857
0
LINE
8
0
10
81.364870
20
257.185857
11
83.284950
21
278.306657
0
LINE
8
0
10
83.284950
20
278.306657
11
74.786670
21
279.079240
0
LINE
8
0
10
74.786670
20
279.079240
11
76.744540
21
300.615840
0
LINE
8
0
10
76.744540
20
300.615840
11
86.193000
21
300.616000
0
LINE
8
0
10
86.193000
20
300.616000
11
86.193000
21
296.349000
0
LINE
8
0
10
86.193000
20
296.349000
11
95.224100
21
296.349000
0
LINE
8
0
10
95.224100
20
296.349000
11
95.224100
21
300.616000
0
LINE
8
0
10
95.224100
20
300.616000
11
104.682000
21
300.616000
0
LINE
8
0
10
104.682000
20
300.616000
11
104.682000
21
279.282000
0
LINE
8
0
10
104.682000
20
279.282000
11
108.949000
21
279.282000
0
LINE
8
0
10
108.949000
20
279.282000
11
108.949000
21
257.736000
0
LINE
8
0
10
108.949000
20
257.736000
11
104.682000
21
257.736000
0
LINE
8
0
10
104.682000
20
257.736000
11
104.682000
21
236.616000
0
LINE
8
0
10
104.682000
20
236.616000
11
108.949000
21
236.616000
0
LINE
8
0
10
108.949000
20
236.616000
11
108.949000
21
215.069000
0
LINE
8
0
10
108.949000
20
215.069000
11
104.682000
21
215.069000
0
LINE
8
0
10
104.682000
20
215.069000
11
104.682000
21
193.949000
0
LINE
8
0
10
104.682000
20
193.949000
11
108.949000
21
193.949000
0
LINE
8
0
10
108.949000
20
193.949000
11
108.949000
21
172.403000
0
LINE
8
0
10
108.949000
20
172.403000
11
104.682000
21
172.403000
0
LINE
8
0
10
104.682000
20
172.403000
11
104.682000
21
151.283000
0
LINE
8
0
10
104.682000
20
151.283000
11
108.949000
21
151.283000
0
LINE
8
0
10
108.949000
20
151.283000
11
108.949000
21
129.736000
0
LINE
8
0
10
108.949000
20
129.736000
11
104.682000
21
129.736000
0
LINE
8
0
10
104.682000
20
129.736000
11
104.682000
21
108.616000
0
LINE
8
0
10
104.682000
20
108.616000
11
108.949000
21
108.616000
0
LINE
8
0
10
24.238500
20
47.882100
11
350.852000
21
47.882100
0
LINE
8
0
10
350.852000
20
47.882100
11
350.852000
21
38.637700
0
LINE
8
0
10
350.852000
20
38.637700
11
355.118000
21
38.637700
0
LINE
8
0
10
355.118000
20
38.637700
11
355.118000
21
29.179900
0
LINE
8
0
10
355.118000
20
29.179900
11
350.852000
21
29.179900
0
LINE
8
0
10
350.852000
20
29.179900
11
350.852000
21
19.935400
0
LINE
8
0
10
350.852000
20
19.935400
11
324.670000
21
19.935400
0
LINE
8
0
10
324.670000
20
19.935400
11
324.670000
21
15.668800
0
LINE
8
0
10
324.670000
20
15.668800
11
294.008000
21
15.668800
0
LINE
8
0
10
294.008000
20
15.668800
11
294.008000
21
19.935400
0
LINE
8
0
10
294.008000
20
19.935400
11
263.773000
21
19.935400
0
LINE
8
0
10
263.773000
20
19.935400
11
263.773000
21
15.668800
0
LINE
8
0
10
263.773000
20
15.668800
11
233.111000
21
15.668800
0
LINE
8
0
10
233.111000
20
15.668800
11
233.111000
21
19.935400
0
LINE
8
0
10
233.111000
20
19.935400
11
202.876000
21
19.935400
0
LINE
8
0
10
202.876000
20
19.935400
11
202.876000
21
15.668800
0
LINE
8
0
10
202.876000
20
15.668800
11
172.214000
21
15.668800
0
LINE
8
0
10
172.214000
20
15.668800
11
172.214000
21
19.935400
0
LINE
8
0
10
172.214000
20
19.935400
11
141.979000
21
19.935400
0
LINE
8
0
10
141.979000
20
19.935400
11
141.979000
21
15.668800
0
LINE
8
0
10
141.979000
20
15.668800
11
111.317000
21
15.668800
0
LINE
8
0
10
111.317000
20
15.668800
11
111.317000
21
19.935400
0
LINE
8
0
10
111.317000
20
19.935400
11
81.082100
21
19.935400
0
LINE
8
0
10
81.082100
20
19.935400
11
81.082100
21
15.668800
0
LINE
8
0
10
81.082100
20
15.668800
11
50.420300
21
15.668800
0
LINE
8
0
10
50.420300
20
15.668800
11
50.420300
21
19.935400
0
LINE
8
0
10
50.420300
20
19.935400
11
24.238500
21
19.935400
0
LINE
8
0
10
24.238500
20
19.935400
11
24.238500
21
29.179900
0
LINE
8
0
10
24.238500
20
29.179900
11
19.971900
21
29.179900
0
LINE
8
0
10
19.971900
20
29.179900
11
19.971900
21
38.637700
0
LINE
8
0
10
19.971900
20
38.637700
11
24.238500
21
38.637700
0
LINE
8
0
10
24.238500
20
38.637700
11
24.238500
21
47.882100
0
LINE
8
0
10
130.454000
20
195.049000
11
130.454000
21
173.822000
0
LINE
8
0
10
130.454000
20
173.822000
11
126.188000
21
173.822000
0
LINE
8
0
10
126.188000
20
173.822000
11
126.188000
21
152.275000
0
LINE
8
0
10
126.188000
20
152.275000
11
130.454000
21
152.275000
0
LINE
8
0
10
130.454000
20
152.275000
11
130.454000
21
131.155000
0
LINE
8
0
10
130.454000
20
131.155000
11
126.188000
21
131.155000
0
LINE
8
0
10
126.188000
20
131.155000
11
126.188000
21
109.609000
0
LINE
8
0
10
126.188000
20
109.609000
11
130.454000
21
109.609000
0
LINE
8
0
10
130.454000
20
109.609000
11
130.454000
21
88.488800
0
LINE
8
0
10
130.454000
20
88.488800
11
126.188000
21
88.488800
0
LINE
8
0
10
126.188000
20
88.488800
11
126.188000
21
66.942100
0
LINE
8
0
10
126.188000
20
66.942100
11
156.850000
21
66.942100
0
LINE
8
0
10
156.850000
20
66.942100
11
156.850000
21
71.208800
0
LINE
8
0
10
156.850000
20
71.208800
11
187.085000
21
71.208800
0
LINE
8
0
10
187.085000
20
71.208800
11
187.085000
21
66.942100
0
LINE
8
0
10
187.085000
20
66.942100
11
217.746000
21
66.942100
0
LINE
8
0
10
217.746000
20
66.942100
11
217.746000
21
71.208800
0
LINE
8
0
10
217.746000
20
71.208800
11
247.982000
21
71.208800
0
LINE
8
0
10
247.982000
20
71.208800
11
247.982000
21
66.942100
0
LINE
8
0
10
247.982000
20
66.942100
11
278.643000
21
66.942100
0
LINE
8
0
10
278.643000
20
66.942100
11
278.643000
21
71.208800
0
LINE
8
0
10
278.643000
20
71.208800
11
308.879000
21
71.208800
0
LINE
8
0
10
308.879000
20
71.208800
11
308.879000
21
66.942100
0
LINE
8
0
10
308.879000
20
66.942100
11
339.540000
21
66.942100
0
LINE
8
0
10
339.540000
20
66.942100
11
339.540000
21
71.208800
0
LINE
8
0
10
339.540000
20
71.208800
11
369.775000
21
71.208800
0
LINE
8
0
10
369.775000
20
71.208800
11
369.775000
21
66.942100
0
LINE
8
0
10
369.775000
20
66.942100
11
400.437000
21
66.942100
0
LINE
8
0
10
400.437000
20
66.942100
11
400.437000
21
71.208800
0
LINE
8
0
10
400.437000
20
71.208800
11
430.672000
21
71.208800
0
LINE
8
0
10
430.672000
20
71.208800
11
430.672000
21
66.942100
0
LINE
8
0
10
430.672000
20
66.942100
11
461.334000
21
66.942100
0
LINE
8
0
10
461.334000
20
66.942100
11
461.334000
21
88.488800
0
LINE
8
0
10
461.334000
20
88.488800
11
457.068000
21
88.488800
0
LINE
8
0
10
457.068000
20
88.488800
11
457.068000
21
109.609000
0
LINE
8
0
10
457.068000
20
109.609000
11
461.334000
21
109.609000
0
LINE
8
0
10
461.334000
20
109.609000
11
461.334000
21
131.155000
0
LINE
8
0
10
461.334000
20
131.155000
11
457.068000
21
131.155000
0
LINE
8
0
10
457.068000
20
131.155000
11
457.068000
21
152.275000
0
LINE
8
0
10
457.068000
20
152.275000
11
461.334000
21
152.275000
0
LINE
8
0
10
461.334000
20
152.275000
11
461.334000
21
173.822000
0
LINE
8
0
10
461.334000
20
173.822000
11
457.068000
21
173.822000
0
LINE
8
0
10
457.068000
20
173.822000
11
457.068000
21
194.942000
0
LINE
8
0
10
457.068000
20
194.942000
11
461.334000
21
194.942000
0
LINE
8
0
10
461.334000
20
194.942000
11
461.334000
21
216.489000
0
LINE
8
0
10
461.334000
20
216.489000
11
457.068000
21
216.489000
0
LINE
8
0
10
457.068000
20
216.489000
11
457.068000
21
237.609000
0
LINE
8
0
10
457.068000
20
237.609000
11
461.334000
21
237.609000
0
LINE
8
0
10
461.334000
20
237.609000
11
461.334000
21
259.155000
0
LINE
8
0
10
461.334000
20
259.155000
11
457.068000
21
259.155000
0
LINE
8
0
10
457.068000
20
259.155000
11
457.068000
21
280.275000
0
LINE
8
0
10
457.068000
20
280.275000
11
461.334000
21
280.275000
0
LINE
8
0
10
461.334000
20
280.275000
11
461.334000
21
301.822000
0
LINE
8
0
10
461.334000
20
301.822000
11
126.188000
21
301.822000
0
LINE
8
0
10
126.188000
20
301.822000
11
126.188000
21
280.275000
0
LINE
8
0
10
126.188000
20
280.275000
11
130.454000
21
280.275000
0
LINE
8
0
10
130.454000
20
280.275000
11
130.454000
21
259.155000
0
LINE
8
0
10
130.454000
20
259.155000
11
126.188000
21
259.155000
0
LINE
8
0
10
126.188000
20
259.155000
11
126.188000
21
237.609000
0
LINE
8
0
10
126.188000
20
237.609000
11
130.454000
21
237.609000
0
LINE
8
0
10
130.454000
20
237.609000
11
130.454000
21
216.489000
0
LINE
8
0
10
130.454000
20
216.489000
11
126.188000
21
216.489000
0
LINE
8
0
10
126.188000
20
216.489000
11
126.188000
21
195.049000
0
LINE
8
0
10
126.188000
20
195.049000
11
130.454000
21
195.049000
0
LINE
8
0
10
8.926810
20
242.713000
11
17.459880
21
242.716104
0
LINE
8
0
10
17.459880
20
242.716104
11
17.467218
21
221.508304
0
LINE
8
0
10
17.467218
20
221.508304
11
8.934148
21
221.505200
0
LINE
8
0
10
8.934148
20
221.505200
11
8.941486
21
199.870700
0
LINE
8
0
10
8.941486
20
199.870700
11
17.474556
21
199.873804
0
LINE
8
0
10
17.474556
20
199.873804
11
17.481893
21
178.666004
0
LINE
8
0
10
17.481893
20
178.666004
11
8.948823
21
178.662900
0
LINE
8
0
10
8.948823
20
178.662900
11
8.956161
21
157.028400
0
LINE
8
0
10
8.956161
20
157.028400
11
17.489231
21
157.031504
0
LINE
8
0
10
17.489231
20
157.031504
11
17.496569
21
135.823704
0
LINE
8
0
10
17.496569
20
135.823704
11
8.963499
21
135.820600
0
LINE
8
0
10
8.963499
20
135.820600
11
8.970837
21
114.186100
0
LINE
8
0
10
8.970837
20
114.186100
11
17.503907
21
114.189204
0
LINE
8
0
10
17.503907
20
114.189204
11
17.511244
21
92.981404
0
LINE
8
0
10
17.511244
20
92.981404
11
8.978174
21
92.978300
0
LINE
8
0
10
8.978174
20
92.978300
11
8.985512
21
71.353100
0
LINE
8
0
10
8.985512
20
71.353100
11
18.395212
21
70.501185
0
LINE
8
0
10
18.395212
20
70.501185
11
18.780022
21
74.750465
0
LINE
8
0
10
18.780022
20
74.750465
11
27.774042
21
73.936170
0
LINE
8
0
10
27.774042
20
73.936170
11
27.389232
21
69.686920
0
LINE
8
0
10
27.389232
20
69.686920
11
36.808162
21
68.834158
0
LINE
8
0
10
36.808162
20
68.834158
11
38.732242
21
90.080458
0
LINE
8
0
10
38.732242
20
90.080458
11
42.981372
21
89.695761
0
LINE
8
0
10
42.981372
20
89.695761
11
44.924692
21
111.154461
0
LINE
8
0
10
44.924692
20
111.154461
11
40.675562
21
111.539158
0
LINE
8
0
10
40.675562
20
111.539158
11
42.580392
21
132.572958
0
LINE
8
0
10
42.580392
20
132.572958
11
46.829522
21
132.188261
0
LINE
8
0
10
46.829522
20
132.188261
11
48.772842
21
153.646961
0
LINE
8
0
10
48.772842
20
153.646961
11
44.523712
21
154.031658
0
LINE
8
0
10
44.523712
20
154.031658
11
46.428542
21
175.065458
0
LINE
8
0
10
46.428542
20
175.065458
11
50.677672
21
174.680761
0
LINE
8
0
10
50.677672
20
174.680761
11
52.620992
21
196.139461
0
LINE
8
0
10
52.620992
20
196.139461
11
48.371862
21
196.524158
0
LINE
8
0
10
48.371862
20
196.524158
11
50.276692
21
217.557958
0
LINE
8
0
10
50.276692
20
217.557958
11
54.525822
21
217.173261
0
LINE
8
0
10
54.525822
20
217.173261
11
56.469142
21
238.631961
0
LINE
8
0
10
56.469142
20
238.631961
11
52.220012
21
239.016658
0
LINE
8
0
10
52.220012
20
239.016658
11
54.124842
21
260.050458
0
LINE
8
0
10
54.124842
20
260.050458
11
58.373972
21
259.665761
0
LINE
8
0
10
58.373972
20
259.665761
11
60.317292
21
281.124461
0
LINE
8
0
10
60.317292
20
281.124461
11
56.068162
21
281.509158
0
LINE
8
0
10
56.068162
20
281.509158
11
57.992242
21
302.755458
0
LINE
8
0
10
57.992242
20
302.755458
11
8.904542
21
307.199668
0
LINE
8
0
10
8.904542
20
307.199668
11
8.911880
21
285.555068
0
LINE
8
0
10
8.911880
20
285.555068
11
17.444920
21
285.558172
0
LINE
8
0
10
17.444920
20
285.558172
11
17.452258
21
264.350372
0
LINE
8
0
10
17.452258
20
264.350372
11
8.919188
21
264.347268
0
LINE
8
0
10
8.919188
20
264.347268
11
8.926810
21
242.713000
 0 
ENDSEC
 0 
EOF